<svg xmlns="http://www.w3.org/2000/svg" xmlns:xlink="http://www.w3.org/1999/xlink" x="0" y="0" version="1.1" viewBox="0 0 1230 650" xml:space="preserve" style="enable-background:new 0 0 1230 650"><style type="text/css">.st0{fill:#000a19}.st1{fill:#bcbec0}.st2{fill:#d8e6f5}.st3{fill:#fff}.st4{fill:#56ccff}.st5{fill:#2e1a66}.st6{fill:#2e3192}.st7{fill:#29b8ff}.st8{fill:#00c7ef}.st9{fill:#e6e7e8}.st10{fill:#ffd270}.st11{fill:#ff9942}.st12{fill:#d1d3d4}.st13{fill:#a7a9ac}.st14{fill:#f1f2f2}.st15{fill:#7ce7ff}.st16{fill:#baffff}.st17{fill:#80d5ff}</style><g id="bike-bottom"><rect width="53.5" height="12.2" x="564.1" y="490.2" class="st0" transform="matrix(-1 -1.224647e-16 1.224647e-16 -1 1181.5857 992.6594)"/><path d="M595.8,502.4c0,0-9.9,15.4-14.6,22.2c-4.7,6.8-8.1,9.3-11.9,7.7c-5.3-2.3,1.5-12.3,1.5-12.3l12.1-17.4 L595.8,502.4z" class="st1"/><rect width="53.5" height="12.2" x="767" y="490.2" class="st0" transform="matrix(-1 -1.224647e-16 1.224647e-16 -1 1587.5221 992.6594)"/><path d="M798.8,502.4c0,0-9.9,15.4-14.6,22.2c-4.7,6.8-8.1,9.3-11.9,7.7c-5.3-2.3,1.5-12.3,1.5-12.3l12.1-17.4 L798.8,502.4z" class="st1"/><rect width="53.5" height="12.2" x="368.7" y="490.2" class="st0" transform="matrix(-1 -1.224647e-16 1.224647e-16 -1 790.9163 992.6594)"/><path d="M400.5,502.4c0,0-9.9,15.4-14.6,22.2c-4.7,6.8-8.1,9.3-11.9,7.7c-5.3-2.3,1.5-12.3,1.5-12.3l12.1-17.4 L400.5,502.4z" class="st1"/><path d="M1080.6,618.3c0,27.1-185.9,30-472.7,30s-462-8.7-462-30s175.2-29.9,462-29.9S1080.6,585.5,1080.6,618.3z" class="st2"/><g><path d="M233.9,144.4h-112c-1.4,0-2.5-1.1-2.5-2.5s1.1-2.5,2.5-2.5h112c1.4,0,2.5,1.1,2.5,2.5 S235.2,144.4,233.9,144.4z" class="st3"/><path d="M233.9,306.1h-112c-1.4,0-2.5-1.1-2.5-2.5s1.1-2.5,2.5-2.5h112c1.4,0,2.5,1.1,2.5,2.5 S235.2,306.1,233.9,306.1z" class="st3"/><path d="M90.4,194.5H22.5c-1.4,0-2.5-1.1-2.5-2.5s1.1-2.5,2.5-2.5h67.9c1.4,0,2.5,1.1,2.5,2.5S91.7,194.5,90.4,194.5z" class="st3"/><path d="M574.8,148.3H507c-1.4,0-2.5-1.1-2.5-2.5s1.1-2.5,2.5-2.5h67.9c1.4,0,2.5,1.1,2.5,2.5 S576.2,148.3,574.8,148.3z" class="st3"/><path d="M121.9,231.2H88c-1.4,0-2.5-1.1-2.5-2.5s1.1-2.5,2.5-2.5h33.9c1.4,0,2.5,1.1,2.5,2.5S123.3,231.2,121.9,231.2 z" class="st3"/><path d="M755.8,201h-33.9c-1.4,0-2.5-1.1-2.5-2.5s1.1-2.5,2.5-2.5h33.9c1.4,0,2.5,1.1,2.5,2.5S757.2,201,755.8,201z" class="st3"/><path d="M39.5,231.2H5.5c-1.4,0-2.5-1.1-2.5-2.5s1.1-2.5,2.5-2.5h33.9c1.4,0,2.5,1.1,2.5,2.5S40.8,231.2,39.5,231.2z" class="st3"/><path d="M624.6,118.1h-33.9c-1.4,0-2.5-1.1-2.5-2.5s1.1-2.5,2.5-2.5h33.9c1.4,0,2.5,1.1,2.5,2.5 S626,118.1,624.6,118.1z" class="st3"/></g></g><g id="bunny-bottom"><path d="M768.9,331.9c0,0,76.1,6.5,94.5,14.8c24.6,11-2.7,45.2-15.6,63.4c-18.9,26.6-47.3,68.5-47.3,68.5 s29.5-6.5,47.3,0c17.7,6.5,20,9.6,15.4,15.4c-4.6,5.8-57.5,1.9-72,0c-17.3-2.3-16.2-12-9.6-21.7c6.6-9.7,57.7-89.5,51.9-94.1 c-8.5-6.8-51.9,3.9-51.9,3.9S753.8,349.6,768.9,331.9z" class="st4"/><path d="M828.7,237.8c0,0,7.7,20.6,26.6,23.7c18.9,3.1,57-3.8,67.7-3.8s22.5,5.6,24,10.5c1.4,4.9,4.7,13,0,18.4 s-16.4,5.9-18.2,0c-1.8-5.9,0.8-15.8-5.8-15c-6.5,0.8-49.9,12.1-80.4,7.6c-30.5-4.5-37.8-18.4-40.5-26.1" class="st4"/><path d="M774.3,331.9c0,0,39.4,0.7,44.6,3.5c5.2,2.8-9.6,52.4-9.6,52.4l-21.2-4c0,0-30.4-44.4-15.8-51.5" class="st5"/><path d="M830.1,240.9l5.7,8.8c0,0-7.2,14-20.9,19.9c-13.7,6-16.3-14.7-16.3-14.7S819.1,241.1,830.1,240.9" class="st6"/></g><g id="sloth-bottom"><path d="M615.5,258.9c0,0,28.6-8.7,47.6-0.4c19.1,8.3,30.1,32.6,24.9,43.2c-5.2,10.6-16.7,12.1-19.1,3.2 c-2.4-8.9-6.4-23.3-15.6-22.5c-9.2,0.8-32,8.5-32,8.5" class="st7"/><path d="M669,304.8c0,0-1.4,6.5-2.9,11.1c-1.5,4.6-1.3,10.1,2.9,0C673.2,305.7,672.4,301.3,669,304.8z" class="st6"/><path d="M682.8,305.6c0,0-1.4,6.5-2.9,11.1c-1.5,4.6-1.3,10.1,2.9,0C687,306.5,686.2,302.1,682.8,305.6z" class="st6"/><path d="M675,310.5c-1.3,5.3-2.5,9.7-2.9,11.9s1.3,5,5.3-7.9C681.5,301.9,676.5,304.7,675,310.5z" class="st6"/><path d="M594,353.3c0,0,40.1,2.4,54.8,11.5c14.7,9.1,16.3,33.4,12.7,53.2c-3.6,19.9-13.1,44.6-22.6,45.2 c-9.6,0.6-20.7-3.8-17.1-30.5s-11.9-48.1-18.3-50.8C597.1,379.1,594,353.3,594,353.3z" class="st7"/><path d="M641.6,361.4c0,0-3.9,1.5-9.6,11.7c-5.7,10.3-8.8,24.7-8.8,24.7l-32.4-32.5l9.4-11.7 C600.2,353.7,625.5,353.7,641.6,361.4z" class="st5"/></g><g id="antelope-bottom"><path d="M352.3,221.5c0,0,55.3,27.1,67.8,28.8c12.5,1.7,48.6,6.6,54.9,12.3c6.3,5.7-1.7,14-9.2,15 c-7.5,1-0.2-4.8-21.4-4.8c-17.8,0-30.2,3-39.8,3.8c-12.7,1-42.5-1-52.9-16" class="st4"/><path d="M459.8,275.5c0,0-1.2,8.2,2.8,8.5c4,0.4,4.7-1.6,4.7-1.6l7.6,10.7c0,0,14.1-0.4,19.4-6.8 c5.4-6.4-19.4-23.8-19.4-23.8S473.7,270.4,459.8,275.5z" class="st8"/><path d="M365.4,324.7c0,0,58.2,8.8,89.2,25.7c31,16.8-26.4,115.4-26.4,115.4l-19.3-2.5c0,0,28.1-66.5,25-79.4 S387.2,371,387.2,371L365.4,324.7z" class="st4"/><path d="M410.2,459.9c0,0,9,6,19.1,3.8c6.2,9.7,6.6,28.2,6.6,28.2s-12.2,5.6-20.4,2.2c-8.2-3.4-9.2-7.1-9.2-7.1 l1.9-13.8c0,0-3.8-0.8-5.8-3.1C402.3,470.2,404.4,461.9,410.2,459.9z" class="st8"/><path d="M454.5,350.3c-31-16.8-89.2-25.7-89.2-25.7l21.8,46.3c0,0,43.6-0.1,46.7,12.8c1.4,6-3.9,23.6-10,40.7 c0,0,9.9,9.3,21.1,8.5C459,402.7,473.8,360.8,454.5,350.3z" class="st5"/></g><g id="bike"><path d="M760.6,371H755c-7.4,0-29.8,0-29.8-20.5l-0.2-8.3v-28.2c0-20.5-7.3-20.5-11.3-20.5h-22.1v-9.2h22.1 c20.5,0,20.5,22.4,20.5,29.8v14.5l0.2,22.1c0,3.9,0,11.3,20.5,11.3h2.9L760.6,371z" class="st9"/><path d="M691.8,296.5h-21.7c-2.8,0-5-2.3-5-5v-3.7c0-2.8,2.3-5,5-5h21.7c2.2,0,4,1.8,4,4v5.7 C695.8,294.7,694,296.5,691.8,296.5z" class="st10"/><rect width="4.3" height="27.1" x="691.9" y="276" class="st11"/><g><g><rect width="4" height="173.4" x="238.6" y="444" class="st12"/><rect width="173.4" height="4" x="153.9" y="528.7" class="st12"/><rect width="4" height="173.4" x="238.6" y="444" class="st12" transform="matrix(0.7071 -0.7071 0.7071 0.7071 -304.7882 325.5738)"/><rect width="173.4" height="4" x="153.9" y="528.7" class="st12" transform="matrix(0.7071 -0.7071 0.7071 0.7071 -304.7878 325.5728)"/></g><g><rect width="173.4" height="4" x="153.9" y="528.7" class="st12" transform="matrix(0.3794 -0.9252 0.9252 0.3794 -341.6975 551.9849)"/><rect width="4" height="173.4" x="238.6" y="444" class="st12" transform="matrix(0.3793 -0.9253 0.9253 0.3793 -341.6967 552.0079)"/><rect width="4" height="173.4" x="238.6" y="444" class="st12" transform="matrix(0.9225 -0.386 0.386 0.9225 -186.2121 134.0149)"/><rect width="173.4" height="4" x="153.9" y="528.7" class="st12" transform="matrix(0.9225 -0.386 0.386 0.9225 -186.2177 134.021)"/></g></g><path d="M240.6,436.3c-52.3,0-94.7,42.4-94.7,94.7s42.4,94.7,94.7,94.7s94.7-42.4,94.7-94.7S292.9,436.3,240.6,436.3z M240.6,611.4c-44.4,0-80.4-36-80.4-80.4c0-44.4,36-80.4,80.4-80.4s80.4,36,80.4,80.4C321,575.4,285,611.4,240.6,611.4z" class="st12"/><path d="M240.6,436.3c-52.3,0-94.7,42.4-94.7,94.7s42.4,94.7,94.7,94.7s94.7-42.4,94.7-94.7S292.9,436.3,240.6,436.3z M240.6,617.9c-48,0-87-38.9-87-87s38.9-87,87-87s87,38.9,87,87S288.6,617.9,240.6,617.9z" class="st0"/><circle cx="240.6" cy="531" r="9.6" class="st13"/><g><g><rect width="4" height="173.4" x="984" y="444" class="st12"/><rect width="173.4" height="4" x="899.2" y="528.7" class="st12"/><rect width="4" height="173.4" x="984" y="444" class="st12" transform="matrix(0.7071 -0.7071 0.7071 0.7071 -86.4786 852.619)"/><rect width="173.4" height="4" x="899.2" y="528.7" class="st12" transform="matrix(0.7071 -0.7071 0.7071 0.7071 -86.4799 852.6147)"/></g><g><rect width="173.4" height="4" x="899.2" y="528.7" class="st12" transform="matrix(0.3794 -0.9252 0.9252 0.3794 120.8858 1241.6149)"/><rect width="4" height="173.4" x="984" y="444" class="st12" transform="matrix(0.3793 -0.9253 0.9253 0.3793 120.9131 1241.6481)"/><rect width="4" height="173.4" x="984" y="444" class="st12" transform="matrix(0.9225 -0.386 0.386 0.9225 -128.4389 421.7346)"/><rect width="173.4" height="4" x="899.2" y="528.7" class="st12" transform="matrix(0.9224 -0.3862 0.3862 0.9224 -128.4653 422.0044)"/></g></g><path d="M986,436.3c-52.3,0-94.7,42.4-94.7,94.7s42.4,94.7,94.7,94.7s94.7-42.4,94.7-94.7S1038.2,436.3,986,436.3z M986,611.4c-44.4,0-80.4-36-80.4-80.4c0-44.4,36-80.4,80.4-80.4s80.4,36,80.4,80.4C1066.4,575.4,1030.4,611.4,986,611.4z" class="st12"/><path d="M986,436.3c-52.3,0-94.7,42.4-94.7,94.7s42.4,94.7,94.7,94.7s94.7-42.4,94.7-94.7S1038.2,436.3,986,436.3z M986,617.9c-48,0-87-38.9-87-87s38.9-87,87-87c48,0,87,38.9,87,87S1034,617.9,986,617.9z" class="st0"/><circle cx="986" cy="531" r="9.6" class="st13"/><rect width="13.1" height="150.5" x="334.8" y="373.7" class="st10" transform="matrix(0.9606 -0.2778 0.2778 0.9606 -111.3066 112.5113)"/><rect width="13.1" height="150.5" x="534.3" y="373.7" class="st10" transform="matrix(0.9606 -0.2778 0.2778 0.9606 -103.4496 167.9555)"/><rect width="13.1" height="150.5" x="733.9" y="373.7" class="st10" transform="matrix(0.9606 -0.2778 0.2778 0.9606 -95.5927 223.3997)"/><polygon points="365.1 521.5 358.1 510.5 521.6 406 525.4 419.1" class="st10"/><polygon points="563.8 521.5 556.7 510.5 720.9 404.9 724.8 418.6" class="st10"/><path d="M961.8,405.1c-0.7-8.4-2.7-11.5,11.6-22.2c12.6-9.5,8.1-32.5,8.1-32.5l-13.4,9.6c1.3,15.9-9,18.2-16.5,26.3 c-7.5,8-3.6,16-3.6,16l31.8,128.8c0.7,2.6,3.1,4.5,5.9,4.5c3.4,0,6.1-2.7,6.1-6C991.8,528.9,970,437.9,961.8,405.1z" class="st10"/><path d="M950,356.6h-9.2v-28.2c0-20.5-7.3-20.5-11.3-20.5h-22.1v-9.2h22.1c20.5,0,20.5,22.4,20.5,29.8V356.6z" class="st14"/><path d="M907.6,310.9H886c-2.8,0-5-2.3-5-5v-3.7c0-2.8,2.3-5,5-5h21.7c2.2,0,4,1.8,4,4v5.7 C911.6,309.1,909.8,310.9,907.6,310.9z" class="st10"/><path d="M488.1,367c-13.9,0-12.3,13.1-10,22.3c2.3,9.2,13.3,15.6,32.1,7.4c18.7-8.2,40.4-9,53.5-9s13.9-14.6,0-16.2 C549.6,370.1,488.1,367,488.1,367z" class="st11"/><path d="M688.4,367c-13.9,0-12.3,13.1-10,22.3c2.3,9.2,13.3,15.6,32.1,7.4c18.7-8.2,40.4-9,53.5-9s13.9-14.6,0-16.2 C750,370.1,688.4,367,688.4,367z" class="st11"/><rect width="4.3" height="27.1" x="907.7" y="290.5" class="st11"/><path d="M720.9,404.9h-5.6c-7.4,0-29.8,0-29.8-20.5l-0.2-8.3v-28.2c0-20.5-7.3-20.5-11.3-20.5h-22.1V318H674 c20.5,0,20.5,22.4,20.5,29.8v14.5l0.2,22.1c0,3.9,0,11.3,20.5,11.3h2.9L720.9,404.9z" class="st14"/><path d="M652.1,330.4h-21.7c-2.8,0-5-2.3-5-5v-3.7c0-2.8,2.3-5,5-5h21.7c2.2,0,4,1.8,4,4v5.7 C656.1,328.6,654.3,330.4,652.1,330.4z" class="st10"/><rect width="4.3" height="27.1" x="652.1" y="309.9" class="st11"/><path d="M560.9,371h-5.6c-7.4,0-29.8,0-29.8-20.5l-0.2-8.3v-28.2c0-20.5-7.3-20.5-11.3-20.5h-22.1v-9.2H514 c20.5,0,20.5,22.4,20.5,29.8v14.5l0.2,22.1c0,3.9,0,11.3,20.5,11.3h2.9L560.9,371z" class="st9"/><path d="M492.1,296.5h-21.7c-2.8,0-5-2.3-5-5v-3.7c0-2.8,2.3-5,5-5h21.7c2.2,0,4,1.8,4,4v5.7 C496.1,294.7,494.3,296.5,492.1,296.5z" class="st10"/><rect width="4.3" height="27.1" x="492.2" y="276" class="st11"/><path d="M995.1,327.6h-9.2v-28.2c0-20.5-7.3-20.5-11.3-20.5h-22.1v-9.2h22.1c20.5,0,20.5,22.4,20.5,29.8V327.6z" class="st14"/><path d="M952.7,281.9H931c-2.8,0-5-2.3-5-5v-3.7c0-2.8,2.3-5,5-5h21.7c2.2,0,4,1.8,4,4v5.7 C956.7,280.1,954.9,281.9,952.7,281.9z" class="st10"/><rect width="4.3" height="27.1" x="952.7" y="261.5" class="st11"/><path d="M782.3,533.7l-1.7-12.2c0.3,0,32.8-4.9,46.2-29.7c3.3-6.1,6.3-11.7,9.1-17.1c16.3-30.7,27-51,48.8-62.9 c24-13,34-13.1,35.7-13L947,397l2.7,12.3l-29.8,1.9c0,0,0.1,0,0.2,0c-0.1,0-8.4,0.2-29.4,11.6c-18.5,10-28,28-43.8,57.8 c-2.9,5.5-5.9,11.1-9.2,17.2C821.3,528,783.9,533.5,782.3,533.7z" class="st10"/><path d="M390,524.4l-149.2,0c-0.1,0-0.2,0-0.4,0c-3.6,0-6.5,2.9-6.5,6.5c0,3.6,2.9,6.5,6.5,6.5c0.1,0,0.2,0,0.4,0 l109.7,0l404.1,0.8v-13.1L390,524.4z" class="st10"/><path d="M327.1,423.2l-4.6-16c0,0-87.1,119.6-87.2,119.7c-2.1,2.9-1.4,7.3,1.5,9.5c2.9,2.1,7.8,1.3,9.9-1.6 C246.7,534.7,327.1,423.2,327.1,423.2z" class="st10"/><path d="M996.6,320.3h-12.5v14.1l-31.4,23.8l0-0.1v-13h-11.9h-1.9c0,0,0,11.4,0,18.7s4.5,11.9,7.7,12.1 c5.3,0.4,9.5-3.6,10.2-4.4c8.5-6.4,32.4-24.6,36.4-27.7c2.6-2,3.3-7,3.3-11.4l0,0V320.3z" class="st10"/><path d="M289.9,367c-13.9,0-12.3,13.1-10,22.3s13.3,15.6,32.1,7.4c18.7-8.2,40.4-9,53.5-9s13.9-14.6,0-16.2 S289.9,367,289.9,367z" class="st11"/><path d="M365.4,507.1c-13.8,0-25,11.2-25,25s11.2,25,25,25s25-11.2,25-25S379.2,507.1,365.4,507.1z M365.4,542.2 c-5.5,0-10-4.5-10-10s4.5-10,10-10s10,4.5,10,10S370.9,542.2,365.4,542.2z" class="st12"/><path d="M560.9,507.1c-13.8,0-25,11.2-25,25s11.2,25,25,25c13.8,0,25-11.2,25-25S574.7,507.1,560.9,507.1z M560.9,542.2c-5.5,0-10-4.5-10-10s4.5-10,10-10s10,4.5,10,10S566.4,542.2,560.9,542.2z" class="st12"/><path d="M764.5,507.1c-13.8,0-25,11.2-25,25s11.2,25,25,25c13.8,0,25-11.2,25-25S778.3,507.1,764.5,507.1z M764.5,542.2c-5.5,0-10-4.5-10-10s4.5-10,10-10c5.5,0,10,4.5,10,10S770,542.2,764.5,542.2z" class="st12"/><rect width="53.5" height="12.2" x="514.1" y="559.7" class="st0"/><circle cx="561.1" cy="532" r="10.6" class="st9"/><path d="M535.9,559.7c0,0,9.9-15.4,14.6-22.2s8.1-9.3,11.9-7.7c5.3,2.3-1.5,12.3-1.5,12.3l-12.1,17.4L535.9,559.7z" class="st9"/><rect width="53.5" height="12.2" x="717.1" y="559.7" class="st0"/><circle cx="764.1" cy="532" r="10.6" class="st9"/><path d="M738.9,559.7c0,0,9.9-15.4,14.6-22.2c4.7-6.8,8.1-9.3,11.9-7.7c5.3,2.3-1.5,12.3-1.5,12.3l-12.1,17.4 L738.9,559.7z" class="st9"/><rect width="53.5" height="12.2" x="318.8" y="559.7" class="st0"/><circle cx="365.7" cy="532" r="10.6" class="st9"/><path d="M340.5,559.7c0,0,9.9-15.4,14.6-22.2c4.7-6.8,8.1-9.3,11.9-7.7c5.3,2.3-1.5,12.3-1.5,12.3l-12.1,17.4 L340.5,559.7z" class="st9"/></g><g id="bunny-top"><g><path d="M882.8,221.6c0,0,2.1-3.2,9.3-7.1c8.9-4.8,14.4-3.3,14.4-3.3S892.5,213.2,882.8,221.6z" class="st6"/><path d="M882.4,224.4c0,0,2.6-1.9,9.6-3c8.7-1.3,12.8,1.3,12.8,1.3S892.7,220.5,882.4,224.4z" class="st6"/><path d="M882.6,227.2c0,0,3.6-1.2,11.7,0.1c9.9,1.7,13.4,6.2,13.4,6.2S895.4,226.5,882.6,227.2z" class="st6"/></g><path d="M852.5,168.9C852.5,168.9,852.5,168.9,852.5,168.9c-4.5-3.8-21.8-29.8-31.1-43.5c-9.3-13.7-40-46.4-53.1-52.4 c0.7,8,9.5,24.1,20.6,38.9c11.1,14.8,44.4,49.8,47.8,55.3c0.6,1.1,0.6,2.1,0.2,3c-5.9,1.7-10.6,4.2-14.3,7c-2.6,0-6.3-0.7-10.7-3.3 c-8.6-5.1-25-28.3-38.9-41.4c-13.9-13-46.8-39.4-54.6-37.2c0.4,9.3,17.2,24.3,36.3,43.8c19,19.5,59.1,47.6,59.1,47.6 c-2.3,6.8-4.2,9.4-4.2,9.4c-5.1,5.3-27.6,8.8-43.1,15.7c-26.8,12-49.1,36-64.1,66.6c-15,30.5-10.1,75.9,13.9,99.3 c23.4,22.8,50,37.5,50.8,48.5c0.9,13-17.3,39.6-24.9,65.4c-3.9,13-4,34.6-14.2,47c-10,10.4,18.3,19.6,36,26.1 c17.7,6.5,28.1,12.3,36.9,13.9c8.9,1.5,10.5-13.3-6.9-24.6c-17.5-11.3-42.3-11.2-45.5-16.2c-3.2-5,45.8-94.4,49.6-116 s-16.4-61.4-20.7-73.7s-6-29.8,12.4-59.5c18.4-29.8,46.9-53.2,46.9-53.2s46.2,5.4,54.9,0C899.3,230.4,879.6,174.8,852.5,168.9z" class="st15"/><path d="M694.7,332.2c0,0-0.6,27.2,13.7,43.7c14.3,16.5,27.9,29.9,32,31.3c4,1.4,11.6-6.3,12.7-8.6 c1-2.3-6.7-19.4-2.4-19.8c4.3-0.4,12.2,12.5,16.4,12.6s25.5-4.4,25.5-4.4l-18.2-55.2C774.3,331.9,704.4,321.9,694.7,332.2z" class="st6"/><path d="M807.5,230.8c-4.6-13.5-2.3-31.9-2.3-31.9c-8.7,4-26.1,7.3-38.9,13c-26.8,12-49.1,36-64.1,66.6 c-1.7,3.4-3.1,7-4.3,10.7c-8.6,27.5-3.3,41.2-3.2,43.1c0,0.1,0,0.1,0,0.2c0.3,0.1,11.2,3.6,26.1,4.8c15.1,1.3,53.4-5.3,53.4-5.3 l0,0c0-10.8,3.6-24.6,15.2-43.3c10.7-17.4,25.9-32.6,35.8-42.3c0,0,0,0,0,0C820.1,247.3,812.2,244.2,807.5,230.8z" class="st6"/><path d="M799.5,230.8c0,0,10.4,37.1,29.3,45.3s66.9-0.7,74.7,10.9c7.8,11.6,4.2,32.5-1.9,33.4s-14.9,4-15.8-2.7 c-0.9-6.7-0.2-21.3-4.7-21.2c-4.5,0.1-42.7,2-58.8,0c-19.2-2.3-52-20.7-57.6-54.5" class="st15"/><path d="M928.8,266.6c0,0,0,16.9,6.6,16.2c6.5-0.8,1.9-16.2,1.9-16.2" class="st4"/><path d="M760.6,241.5c0,0,5.6,24,16.7,36.4c16.4,0,32-23,32-23s-7.2-18.4-7.2-26.1" class="st6"/><ellipse cx="872.1" cy="192.6" class="st5" rx="1.8" ry="4.7" transform="matrix(0.8352 -0.55 0.55 0.8352 37.8211 511.3919)"/><ellipse cx="853.3" cy="199.7" class="st5" rx="2.4" ry="4.7" transform="matrix(0.8352 -0.55 0.55 0.8352 30.8099 502.207)"/><path d="M881,221.9c0-2.1,2-1.7,5-2.6s3.9-1.6,4.6,0c0.8,1.6,0.9,5.5-1.7,6.6C884.5,227.8,881,224.1,881,221.9z" class="st5"/><path d="M814.7,181.3c0,0-80.7-80-86.7-78.6C726.1,118.6,814.1,178.9,814.7,181.3z" class="st4"/><path d="M845.3,168.5c0,0-37.6-37-46.5-49.1S774,81.3,774,81.3s29.8,29.8,35.4,37.3S845.3,168.5,845.3,168.5z" class="st4"/><g><path d="M861.3,225.4c0,0-2.7-2.6-10.6-4.8c-9.7-2.7-14.8,0-14.8,0S849.9,219.4,861.3,225.4z" class="st6"/><path d="M862.3,228c0,0-3-1.3-10.1-0.7c-8.7,0.7-12.2,4.2-12.2,4.2S851.3,226.5,862.3,228z" class="st6"/><path d="M862.7,230.8c0,0-3.8-0.4-11.4,2.7c-9.3,3.9-11.6,9.1-11.6,9.1S850.1,233,862.7,230.8z" class="st6"/></g></g><g id="sloth-top"><path d="M647.4,270.8c0.3-2.2,0.7-4.4,1.4-6.5c1-2.9,2.9-5.7,5.5-8.5c0,0,0,4.7,2.1,3.8c2.1-0.9,3.5-9,3.5-9.1l0,0 c0,0,1,4.1,3.2,3.4c1.8-0.6,4-8.8,4-8.8c6.5-4.5,13.6-8.7,19.3-12.1c8.6-5.3,10.4-16.9,9.4-28.4l0,0c0,0,3.4,10.1,3.1,3.7 c-0.4-6.4-3.8-9.9-3.8-9.9s3,0.8,3.8-2.8c0.8-3.6-8.9-14.7-8.9-14.7l0,0c-5.5-10.7-16.3-17.6-33.9-18.2 c-13.3-0.5-37.5,2.2-53.6,12.5v0c0,0-9.9,5-16.5,6.5c-6.6,1.6-0.3,6,4.9,4.6c0,0-9.5,3-10.7,6.1c-1.2,3.2,6,1.5,6,1.5 s-5,2.5-6.1,5.7c-1.1,3.2,3.1,0.9,3.1,0.9l0,0c-1.5,4-2.3,7-4.3,9.3c-6.6,1.2-15.4-0.5-16.8,2.6c-1.5,3.1,3.9,4.1,3.9,4.1 c-11.6,4.3-28.6,10.4-44.6,23.9c-25.1,21.1-42.9,67-46.9,86.8c-4,19.8,0.4,59.2,35,64.4c34.6,5.2,50.5,6.8,64.4,24.6 c13.9,17.9,16.3,56.1,14.3,71.2c-2,15.1,15.9,21.1,24.2,14.3c8.3-6.8,20.6-54.4,13.2-95.8c-4-22.2-14.1-33.1-21.7-42 c2.7-5.6,5-14.1,6.6-26.9c2-15.4,21.4-25.5,30.5-36.6C648.2,291.3,646.1,280.8,647.4,270.8" class="st4"/><path d="M588.6,494.4c-0.7,4.8-1.3,8.3-3.6,13.6c-2.3,5.3-2.7,9.7,3.6,0c4.1-6.2,5.2-9.4,5.4-13.6 C594.2,490.1,589.2,490.1,588.6,494.4z" class="st6"/><path d="M477.7,365.9c0,0,4.1,32.3,42.2,34.6s47.4,18.8,47.4,18.8s12.2-7.2,24.5-11.1c10.6-3.4,17.4-8.8,33.6-2.3 c0-14.4-3.6-33.9-20.6-44.5c-17-10.6-124,2.9-124,2.9" class="st6"/><path d="M597,498.5c-0.7,4.8-1.3,8.3-3.6,13.6s-2.7,9.7,3.6,0c4.1-6.2,5.2-9.4,5.4-13.6 C602.6,494.2,597.6,494.2,597,498.5z" class="st6"/><path d="M473.9,329.3c-0.1,0.7-0.2,1.3-0.3,2c0,0,0,0.1,0,0.1c-0.1,0.7-0.2,1.4-0.2,2.1c0,0,0,0.1,0,0.1 c-0.1,0.7-0.1,1.4-0.2,2.1c0,0.1,0,0.1,0,0.2c0,0.7-0.1,1.4-0.1,2.2c0,0.1,0,0.1,0,0.2c0,0.7,0,1.5,0,2.2c0,0.1,0,0.1,0,0.2 c0,0.8,0,1.5,0,2.3c0,0.1,0,0.1,0,0.2c0,0.8,0.1,1.5,0.1,2.3c0,0.1,0,0.1,0,0.2c0.1,0.8,0.1,1.6,0.2,2.4c0,0.1,0,0.1,0,0.2 c0.1,0.8,0.2,1.6,0.3,2.4c0,0.1,0,0.1,0,0.2c0.1,0.8,0.2,1.6,0.4,2.4c0,0,0,0.1,0,0.1c0.1,0.8,0.3,1.6,0.5,2.5c0,0,0,0.1,0,0.1 c0.2,0.8,0.4,1.7,0.6,2.5c0,0,0,0.1,0,0.1c0.2,0.8,0.4,1.7,0.7,2.5c0,0,0,0,0,0.1c0.2,0.8,0.5,1.7,0.8,2.5c0,0,0,0,0,0 c0.3,0.8,0.6,1.7,0.9,2.5c0,0,0,0,0,0c10.5-3.5,38.8,0.9,50.5,2.5c49.8,7,76.6-7,76.6-7c0,0,0,0,0,0c0.4-1,0.8-2.1,1.2-3.4l0,0 c0.1-0.3,0.2-0.7,0.3-1c0-0.1,0.1-0.2,0.1-0.3c0.1-0.3,0.2-0.6,0.3-1c0-0.1,0.1-0.3,0.1-0.4c0.1-0.3,0.2-0.6,0.3-1 c0-0.2,0.1-0.4,0.1-0.5c0.1-0.3,0.2-0.6,0.2-1c0-0.2,0.1-0.4,0.1-0.6c0.1-0.3,0.2-0.6,0.2-1c0-0.2,0.1-0.4,0.1-0.6 c0.1-0.6,0.2-1.2,0.4-1.8c0.1-0.3,0.1-0.6,0.2-0.9c0.1-0.3,0.1-0.6,0.2-0.8c0.1-0.3,0.1-0.7,0.2-1c0.1-0.3,0.1-0.6,0.2-0.9 c0.1-0.4,0.1-0.7,0.2-1.1c0-0.3,0.1-0.6,0.1-0.9c0.1-0.4,0.1-0.8,0.2-1.2c0-0.3,0.1-0.5,0.1-0.8c0.1-0.5,0.1-0.9,0.2-1.4 c0-0.2,0.1-0.5,0.1-0.7c0.1-0.7,0.2-1.5,0.3-2.2c2-15.4,21.4-25.5,30.5-36.6c4.4-5.4,5.5-11.4,5.9-17.4c-5.5-0.5-10.9-2.3-11.8-6.7 c-1.9-9.7-9.6-23.5-25.1-26.6c-15.5-3.1-53.4,8.9-73.9,3.7c-19.8-5.1-10.1-16.3-9.5-17c-0.9,0.6-1.7,1.3-2.6,2 c-0.9,0.7-1.8,1.4-2.7,2.1c-25.1,21.1-42.9,67-46.9,86.8C474.1,327.9,474,328.6,473.9,329.3C473.9,329.2,473.9,329.3,473.9,329.3z M578.4,274.6c7-10.2,20.6-16,32.5-10.4c8.9,4.2,9.7,11.3,10.5,26.5c0.8,15.2-6.2,40.9-32.7,35C562.2,320,571.5,284.9,578.4,274.6z" class="st6"/><path d="M607.5,498.5c-0.7,4.8-1.3,8.3-3.6,13.6c-2.3,5.3-2.7,9.7,3.6,0c4.1-6.2,5.2-9.4,5.4-13.6 C613.2,494.2,608.2,494.2,607.5,498.5z" class="st6"/><path d="M590.8,276.3c0,0,25-8.3,44.1,0c19.1,8.3,19.5,43.5,14.3,54.1c-5.2,10.6-16.7,12.1-19.1,3.2 c-2.4-8.9,0.4-24.4-8.7-23.6c-9.2,0.8-15.9,6.7-15.9,6.7" class="st4"/><path d="M630.1,333.6c0,0-1.4,6.5-2.9,11.1c-1.5,4.6-1.3,10.1,2.9,0C634.3,334.5,633.5,330.1,630.1,333.6z" class="st6"/><path d="M643.9,334.3c0,0-1.4,6.5-2.9,11.1c-1.5,4.6-1.3,10.1,2.9,0C648.1,335.3,647.3,330.9,643.9,334.3z" class="st6"/><path d="M636.2,339.3c-1.3,5.3-2.5,9.7-2.9,11.9c-0.4,2.3,1.3,5,5.3-7.9C642.6,330.6,637.7,333.4,636.2,339.3z" class="st6"/><path d="M690.8,198.5c0,0,3.5-0.6,3.2-2.8c-0.3-2.1-2.1-4.2-2.1-4.2s0-4-4.2-10.2c-4.2-6.2-19.9-11.7-30.3-12.1 c-7.8-0.3-11.3-1.1-13.9-0.6c-2.6,0.5,1.2,3.4,1.2,3.4s-5.2-2.4-8-1.8c-2.7,0.6,0,3.3,0,3.3s-9.9-1.6-17,1.7 c-7.1,3.2-14.3,4.4-14.7,11.3s2.2,4.9,5.1,5c2.9,0.1,0,4.7-3.8,5.1c4.3,0.8,9.5,0.2,9.2,3.2c-0.3,3-10.6,2.5-10.6,2.5 s9.4,2.3,9.6,4.3s-8.2,0-8.2,0s-2.8,4.4,4.3,8.7c0,0-9.2-2.5-8.8,0.7c0.3,2.4,5.1,3.3,7.5,3.6c-3-0.2-9.8-0.2-7.5,4.6 c2.9,6,11.2,2.7,11.2,2.7s-5.3,4.7-2,7.1s6.2,0,6.2,0s-3.8,3.7,0,7c3.8,3.3,4.7-3.1,4.7-3.1s0,6,3.4,6.2c3.4,0.2,4.3-5.4,4.3-5.4 c0,0,0,0,0,0c0,0,1.7,7.6,3.3,8.7c1.1,0.8,2.4-1.1,3.1-2.3c2.4,2.9,4.1,5.1,5.5,4.7c1-0.3,1.5-0.9,1.7-1.5c0.3,0.8,1.1,1.5,3.4,1.5 c4.8,0,7.6-4.4,7.6-4.4s-1.7,4.2,3,3.3c4.3-0.8,7.3-5.4,7.7-6.1c-0.3,0.5-1.8,3.3,1.8,3.5c0.2-0.6,0.3-1,0.3-1 c6.5-4.5,13.6-8.7,19.3-12.1c6.5-4,9.1-11.6,9.6-20C693.7,202.4,690.8,198.5,690.8,198.5z" class="st16"/><path d="M669.9,202c-14.4,3.6-19.6,9.7-19.5,14.8c0.1,5.1,4.8,14,23.5,9c18.7-5,14.8-15.2,13.1-18.4 C685.4,204.2,678.5,199.8,669.9,202z" class="st4"/><path d="M648.7,204.6c5.8-5,12.7-7.9,7.4-13.9c-5.3-6-15.7,1.1-19.4,6.9c-5,7.9-8.8,14.7-15.3,21.6 c-3.3,3.5-6.8,6.2-9.4,7.9c0.6-0.2,1-0.3,1-0.3s-5.3,4.7-2,7.1s6.2,0,6.2,0s-3.8,3.7,0,7c3.8,3.3,4.7-3.1,4.7-3.1s0,6,3.4,6.2 c0.6,0,1.1-0.1,1.6-0.4l1.3-1.3c0.5-0.7,0.8-1.5,1-2.2c-0.6-1.5-1.4-5.2,0.4-11.3C632.1,220.4,642.9,209.6,648.7,204.6z" class="st4"/><path d="M664.5,205.8c0.3-2.1,2.2-1.3,5.3-1.9c3.1-0.5,4.1-1.1,4.6,0.7c0.5,1.7,0.1,5.6-2.6,6.3 C667.2,212.2,664.2,207.9,664.5,205.8z" class="st5"/><path d="M690.8,198.5c0,0,3.5-0.6,3.2-2.8c-0.1-0.7-0.4-1.4-0.7-2.1c-2.5-2.1-10.7-8.8-15.4-6.7 c-5.6,2.5-7.3,6.7-2.3,8.8c3.7,1.6,13.1,5.7,17.7,7.7C691.9,199.9,690.8,198.5,690.8,198.5z" class="st4"/><ellipse cx="650.4" cy="194.3" class="st5" rx="2.8" ry="2.8" transform="matrix(0.9283 -0.3717 0.3717 0.9283 -25.6043 255.7216)"/><ellipse cx="679" cy="191.5" class="st5" rx="2.8" ry="2.8" transform="matrix(0.9283 -0.3717 0.3717 0.9283 -22.5113 266.1414)"/></g><g id="bike-top"><path d="M521.2,404.9h-5.6c-7.4,0-29.8,0-29.8-20.5l-0.2-8.3l0-28.2c4.7-18.8-6.3-20.2-11.3-20.5l-22.1,0V318h22.1 c20.5,0,20.5,22.4,20.5,29.8v14.5l0.2,22.1c0,3.9,0,11.3,20.5,11.3h2.9L521.2,404.9z" class="st14"/><path d="M452.4,330.4h-21.7c-2.8,0-5-2.3-5-5v-3.7c0-2.8,2.3-5,5-5h21.7c2.2,0,4,1.8,4,4v5.7 C456.4,328.6,454.6,330.4,452.4,330.4z" class="st10"/><rect width="4.3" height="27.1" x="452.4" y="309.9" class="st11"/></g><g id="antelope-top"><path d="M276.3,337.2c0,0-17,36.9-26.1,43.7c-9.6,7.2-23,7.7-38.9-3.6c-14.5-10.3-36.1-6.3-36.1-6.3v3.6 c0,0,17.6-3.2,33,7.2s32.4,13.6,45.2,3.9c12.4-9.4,27-40.2,27-40.2L276.3,337.2z" class="st17"/><path d="M175.2,371c0,0-0.8,0.1-10.4-4c-12.2-5.1-29.8-11.9-42.9-5.6c0,14.5,24.8,22.9,35.7,22.3 c10.8-0.6,17.6-8.9,17.6-8.9V371z" class="st16"/><path d="M399.8,122c0,0,3.2-17.2,11.3-25.3c9,16.4-2.3,32.8-2.3,32.8L399.8,122z" class="st4"/><path d="M317.9,0.1c0,0,11.1,4.4,18.6,10.1c7.6,5.7,3.7,8.6,9,13.9s15.9,5.7,21.6,18c5.7,12.3,1.9,12.6,6,23.8 s9.8,8.4,15.2,17.6c5.4,9.2,3.3,15.6,8.3,26.4c5,10.8,8.4,7.7,11.4,13.3c3,5.6-3,11.4-8.5,9.6c-5.5-1.8-8.6-7.5-13.1-14.2 c-4.6-6.7-2-20.9-6.9-28c-5-7.1-13.8-10.1-17.8-18.9c-4-8.8,0.3-20-6.7-26.5c-6.9-6.6-12.7-5.5-17.1-12.9s-1.8-11-8.4-14.7 S317.9,0.1,317.9,0.1z" class="st8"/><path d="M452.4,168.4c-10.1-7.7-12-21.6-26.7-33.9c-14.7-12.3-21.9-20.5-43.5-12.3c-21.6,8.2-48.2,47.2-65.2,73.9 c-16.9,26.7-41.1,76-45.2,107s-8.5,50.8,28.8,70.5c40.7,21.5,60.8,26.9,69.9,60.4c5,18.7-21.4,105.6-21.4,105.6s5.9,5.3,14.2,5.3 c0,0,40.3-90.9,39-129.8c-0.6-16.2-8.8-74.6-30-87.6c-5.3-12.3,1.2-101.7,5.3-118.6c4.1-16.9,8.3-29.3,24.1-30.3 c8.2-0.5,15.6,4.1,24,8.2c8.4,4.1,21.2,15.4,33.5,3.6C466.7,183.3,462.6,176.1,452.4,168.4z" class="st15"/><path d="M375.6,221.1L375.6,221.1c0.7-5.3,1.4-9.6,2-12.1c1.3-5.4,2.7-10.4,4.4-14.7c0,0-4.1,3-6.5,5.4 c-2.4,2.4-1.5-8.8-3.5-7.7c-2,1.1-2,12.5-2,12.5s-3.3-5.1-6.6-4.9c-3.3,0.2,0,13,0,13L375.6,221.1z" class="st16"/><path d="M402.3,415.2c-0.6-16.2-8.8-74.6-30-87.6c-4.8-11.1,0.1-85.1,4.1-111.8h0c-19.3,1.7-45.5-40.6-45.5-40.6l0,0 c-5,7.3-9.7,14.5-13.8,20.9c-16.9,26.7-41.1,76-45.2,107s-8.5,50.8,28.8,70.5c40.7,21.5,60.8,26.9,69.9,60.4 c2.4,8.8-2.2,32.8-7.8,55.7c0,0,3.3,2,10.5,2.5c7.2,0.6,11.8-2.5,11.8-2.5C394.3,463.4,402.9,433.5,402.3,415.2z M337.9,279.9 c-23.4-7.3-19.6-36.7-12.2-48.7c7.4-12.1,20.8-17.6,29.8-14.1c9,3.5,9.8,11.1,9.9,17l0.7,1C366.1,235.1,361.3,287.2,337.9,279.9z" class="st6"/><path d="M349.1,539.7c0,0-11.6,9.4-11.7,12.6c2.7,3.2,6.4,3.2,6.4,3.2v13c0,0,11,11.7,27.7,5.6c1.9-11-7-32.9-7-32.9 S354.5,543.5,349.1,539.7z" class="st8"/><path d="M274.6,19c0,0,1.9,11.7,5.9,20.3s7.6,5.4,11.7,11.7s2.3,16.7,13.1,24.9s11.9,4.5,22,10.8s6.2,11.3,14,18.5 c7.8,7.2,14.6,6.5,24.1,13.6c9.5,7.1,5.8,9.9,10.6,13.9c4.8,4.1,11.7-0.6,11.2-6.3c-0.6-5.8-5.6-9.9-11.2-15.8 c-5.6-5.9-20-6.3-25.9-12.7c-5.9-6.3-7-15.6-14.8-21.4c-7.8-5.7-19.6-3.9-24.5-12.1s-2.7-13.6-9-19.4s-10.4-4.1-12.7-11.3 C286.8,26.6,274.6,19,274.6,19z" class="st8"/><path d="M384.4,134.4c0,0-3.3-9.1-16.7-13.7c-13.5-4.6-22.1,3.1-22.1,3.1s6.2,12.7,17.8,14.9s17.5,0,17.5,0" class="st15"/><path d="M358.5,224.1c0,0,24.1,36.6,35.4,42.2s44,21.7,48.2,29c4.2,7.3-6,12.8-13.5,11.3c-7.5-1.4,1.3-4.6-18.8-11.3 c-16.9-5.6-29.6-6.7-39-9c-12.4-3.1-40-14.4-45.2-31.9" class="st15"/><path d="M423.6,302.7c0,0-3.7,7.4,0,9c3.7,1.6,5,0,5,0l3.8,12.6c0,0,13.5,4.1,20.6-0.3c7.1-4.4-10.9-28.7-10.9-28.7 S438.4,302.2,423.6,302.7z" class="st8"/><g><path d="M429.5,154.1c6.3,7.6,12.5,7.7,16.8,7.9c-5.6-7.8-9.4-18-20.6-27.4c-0.3-0.2-0.6-0.5-0.9-0.7 C423.5,138.4,422.9,146.1,429.5,154.1z" class="st16"/><path d="M453,168.9c2.4,6.4,6.2,14.6-0.6,17.6c-8.4,3.7-20.6-4.6-28.7-11.3c-8.2-6.7-8.5-28.1-18-30.9 c-9.4-2.9-22.5-4.2-28.9,13.2c-6.4,17.4,15.4,23.8,15.4,23.8l0,0c2.6-1.5,5.7-2.3,9.5-2.6c8.2-0.5,15.6,4.1,24,8.2 c8.4,4.1,21.2,15.4,33.5,3.6C466.6,183.4,462.7,176.4,453,168.9z" class="st16"/></g><circle cx="405.7" cy="154.1" r="3.4" class="st5"/><circle cx="429.5" cy="144.3" r="2.9" class="st5"/><path d="M444.1,183.2c0,0,6.1,1.8,8.8-1s3.5-5.3,3.5-5.3s6.8,2.2,4.3,6s-1.9,5.5-2.8,7.5c-0.9,2-2.7,1.8-4.3,0 c-1.7-1.8-6.8,1-9.5-0.7C439.9,187,444.1,183.2,444.1,183.2z" class="st5"/></g></svg>